grf
version=1
nRows=19
nColumns=37
inDegrees=no
endheader
time	ground_force_1_vx	ground_force_1_vy	ground_force_1_vz	ground_force_1_px	ground_force_1_py	ground_force_1_pz	ground_moment_1_mx	ground_moment_1_my	ground_moment_1_mz	ground_force_2_vx	ground_force_2_vy	ground_force_2_vz	ground_force_2_px	ground_force_2_py	ground_force_2_pz	ground_moment_2_mx	ground_moment_2_my	ground_moment_2_mz	ground_force_3_vx	ground_force_3_vy	ground_force_3_vz	ground_force_3_px	ground_force_3_py	ground_force_3_pz	ground_moment_3_mx	ground_moment_3_my	ground_moment_3_mz	ground_force_4_vx	ground_force_4_vy	ground_force_4_vz	ground_force_4_px	ground_force_4_py	ground_force_4_pz	ground_moment_4_mx	ground_moment_4_my	ground_moment_4_mz
      3.68000000	      0.00000000	     -0.00000000	      0.00000000	      0.00000000	      0.00000000	      0.00000000	      0.00000000	      0.00000000	      0.00000000	      5.47112513	    -13.04365349	   -817.55358887	   -295.06414565	  -1115.18206770	      0.00000000	      0.00000000	     -0.00000000	   1181.97346948	      0.00000000	     -0.00000000	      0.00000000	      0.00000000	      0.00000000	      0.00000000	      0.00000000	      0.00000000	      0.00000000	    -35.08428813	     16.23852083	     75.63409424	    605.08990998	   -565.81506333	      0.00000000	      0.00000000	     -0.00000000	    -39.67513884
      3.69000000	      0.00000000	     -0.00000000	      0.00000000	      0.00000000	      0.00000000	      0.00000000	      0.00000000	      0.00000000	      0.00000000	      3.19867015	    -13.47494507	   -822.31842041	   -294.08125532	  -1115.53889978	      0.00000000	      0.00000000	      0.00000000	    543.08206887	      0.00000000	     -0.00000000	      0.00000000	      0.00000000	      0.00000000	      0.00000000	      0.00000000	      0.00000000	      0.00000000	    -34.77029656	     16.53980941	     74.04183197	    609.01154198	   -566.98056170	      0.00000000	      0.00000000	     -0.00000000	   -170.53298258
      3.70000000	      0.00000000	     -0.00000000	      0.00000000	      0.00000000	      0.00000000	      0.00000000	      0.00000000	      0.00000000	      0.00000000	      0.41698486	    -12.82226276	   -820.19891357	   -292.81820079	  -1115.10280263	      0.00000000	      0.00000000	     -0.00000000	    -24.10830031	      0.00000000	     -0.00000000	      0.00000000	      0.00000000	      0.00000000	      0.00000000	      0.00000000	      0.00000000	      0.00000000	    -34.67830516	     16.19453733	     77.57078552	    597.60486333	   -560.21098107	      0.00000000	      0.00000000	      0.00000000	   -170.75366216
      3.71000000	      0.00000000	     -0.00000000	      0.00000000	      0.00000000	      0.00000000	      0.00000000	      0.00000000	      0.00000000	      0.00000000	     -1.28032374	     -9.84768105	   -823.50115967	   -291.48655535	  -1116.50477011	      0.00000000	      0.00000000	     -0.00000000	   -408.19270600	      0.00000000	     -0.00000000	      0.00000000	      0.00000000	      0.00000000	      0.00000000	      0.00000000	      0.00000000	      0.00000000	    -34.76745845	     16.21212500	     74.22030640	    610.27748258	   -568.58075053	      0.00000000	      0.00000000	     -0.00000000	     -1.68770049
      3.72000000	      0.00000000	     -0.00000000	      0.00000000	      0.00000000	      0.00000000	      0.00000000	      0.00000000	      0.00000000	      0.00000000	     -4.23612118	     -9.40188026	   -825.03918457	   -289.70134024	  -1116.50117574	      0.00000000	      0.00000000	     -0.00000000	   -937.06914143	      0.00000000	     -0.00000000	      0.00000000	      0.00000000	      0.00000000	      0.00000000	      0.00000000	      0.00000000	      0.00000000	    -34.60608532	     16.14784734	     75.86193848	    603.72218183	   -563.33004039	      0.00000000	      0.00000000	     -0.00000000	   -131.14689675
      3.73000000	      0.00000000	     -0.00000000	      0.00000000	      0.00000000	      0.00000000	      0.00000000	      0.00000000	      0.00000000	      0.00000000	     -6.82303953	    -11.20488834	   -824.50476074	   -287.83641636	  -1116.80454739	      0.00000000	      0.00000000	     -0.00000000	  -1063.30282099	      0.00000000	     -0.00000000	      0.00000000	      0.00000000	      0.00000000	      0.00000000	      0.00000000	      0.00000000	      0.00000000	    -34.75649885	     15.96772021	     74.73803711	    608.29408694	   -563.87663328	      0.00000000	      0.00000000	     -0.00000000	   -110.19038035
      3.74000000	      0.00000000	     -0.00000000	      0.00000000	      0.00000000	      0.00000000	      0.00000000	      0.00000000	      0.00000000	      0.00000000	     -7.42232466	    -10.37122154	   -823.14941406	   -286.17326745	  -1116.80903423	      0.00000000	      0.00000000	     -0.00000000	  -1338.21169564	      0.00000000	     -0.00000000	      0.00000000	      0.00000000	      0.00000000	      0.00000000	      0.00000000	      0.00000000	      0.00000000	    -34.78513957	     16.22735518	     76.04515076	    604.84318665	   -564.59049935	      0.00000000	      0.00000000	     -0.00000000	   -135.28828818
      3.75000000	      0.00000000	     -0.00000000	      0.00000000	      0.00000000	      0.00000000	      0.00000000	      0.00000000	      0.00000000	      0.00000000	     -6.54081869	     -8.23612785	   -824.25036621	   -285.74802063	  -1116.82276480	      0.00000000	      0.00000000	     -0.00000000	  -1399.44700424	      0.00000000	     -0.00000000	      0.00000000	      0.00000000	      0.00000000	      0.00000000	      0.00000000	      0.00000000	      0.00000000	    -34.48399213	     16.01459805	     75.56581879	    605.61408703	   -565.89654630	      0.00000000	      0.00000000	     -0.00000000	    -42.36498699
      3.76000000	      0.00000000	     -0.00000000	      0.00000000	      0.00000000	      0.00000000	      0.00000000	      0.00000000	      0.00000000	      0.00000000	     -6.85505867	     -7.38368559	   -839.15551758	   -285.14448439	  -1117.23863335	      0.00000000	      0.00000000	     -0.00000000	  -1524.84916744	      0.00000000	     -0.00000000	      0.00000000	      0.00000000	      0.00000000	      0.00000000	      0.00000000	      0.00000000	      0.00000000	    -35.17126326	     15.87217925	     76.32238770	    603.22673116	   -563.37285188	      0.00000000	      0.00000000	      0.00000000	     97.68961078
      3.77000000	      0.00000000	     -0.00000000	      0.00000000	      0.00000000	      0.00000000	      0.00000000	      0.00000000	      0.00000000	      0.00000000	     -6.14624691	     -7.28052759	   -851.27526855	   -283.81804528	  -1116.29977155	      0.00000000	      0.00000000	     -0.00000000	  -1205.96179858	      0.00000000	     -0.00000000	      0.00000000	      0.00000000	      0.00000000	      0.00000000	      0.00000000	      0.00000000	      0.00000000	    -34.61514523	     16.06223790	     76.32173157	    603.76933520	   -562.17194751	      0.00000000	      0.00000000	     -0.00000000	   -179.68833293
      3.78000000	      0.00000000	     -0.00000000	      0.00000000	      0.00000000	      0.00000000	      0.00000000	      0.00000000	      0.00000000	      0.00000000	     -9.77025509	     -6.59564972	   -861.53662109	   -281.67608181	  -1117.27007408	      0.00000000	      0.00000000	      0.00000000	  -1382.32195382	      0.00000000	     -0.00000000	      0.00000000	      0.00000000	      0.00000000	      0.00000000	      0.00000000	      0.00000000	      0.00000000	    -34.82730726	     15.90495891	     75.99208069	    605.21044577	   -565.77957882	      0.00000000	      0.00000000	      0.00000000	     36.49705627
      3.79000000	      0.00000000	     -0.00000000	      0.00000000	      0.00000000	      0.00000000	      0.00000000	      0.00000000	      0.00000000	      0.00000000	    -15.34420776	     -4.48443556	   -866.98016357	   -279.21501249	  -1117.23452327	      0.00000000	      0.00000000	     -0.00000000	  -1580.09208624	      0.00000000	     -0.00000000	      0.00000000	      0.00000000	      0.00000000	      0.00000000	      0.00000000	      0.00000000	      0.00000000	    -34.62042857	     16.27052228	     75.93842316	    603.84378486	   -565.98675910	      0.00000000	      0.00000000	     -0.00000000	   -116.59749542
      3.80000000	      0.00000000	     -0.00000000	      0.00000000	      0.00000000	      0.00000000	      0.00000000	      0.00000000	      0.00000000	      0.00000000	    -19.35293770	     -3.29782486	   -872.55194092	   -277.01236194	  -1117.68253220	      0.00000000	      0.00000000	     -0.00000000	  -1616.46447761	      0.00000000	     -0.00000000	      0.00000000	      0.00000000	      0.00000000	      0.00000000	      0.00000000	      0.00000000	      0.00000000	    -34.78549816	     16.15276450	     77.04652405	    600.04668498	   -562.19578122	      0.00000000	      0.00000000	     -0.00000000	    -92.65579227
      3.81000000	      0.00000000	     -0.00000000	      0.00000000	      0.00000000	      0.00000000	      0.00000000	      0.00000000	      0.00000000	      0.00000000	    -20.93846893	     -2.77688646	   -875.42333984	   -274.77648481	  -1117.79086625	      0.00000000	      0.00000000	     -0.00000000	  -1622.60776252	      0.00000000	     -0.00000000	      0.00000000	      0.00000000	      0.00000000	      0.00000000	      0.00000000	      0.00000000	      0.00000000	    -34.75125361	     16.25676840	     76.34526825	    601.58550084	   -565.43557563	      0.00000000	      0.00000000	      0.00000000	     49.11536717
      3.82000000	      0.00000000	     -0.00000000	      0.00000000	      0.00000000	      0.00000000	      0.00000000	      0.00000000	      0.00000000	      0.00000000	    -21.83626938	     -3.15361977	   -874.85260010	   -273.24179373	  -1118.02553953	      0.00000000	      0.00000000	     -0.00000000	  -1776.69717565	      0.00000000	     -0.00000000	      0.00000000	      0.00000000	      0.00000000	      0.00000000	      0.00000000	      0.00000000	      0.00000000	    -34.72359705	     16.34689062	     75.83379364	    605.64625036	   -567.08407692	      0.00000000	      0.00000000	     -0.00000000	   -207.55521351
      3.83000000	      0.00000000	     -0.00000000	      0.00000000	      0.00000000	      0.00000000	      0.00000000	      0.00000000	      0.00000000	      0.00000000	    -23.29766655	      0.04113318	   -868.98565674	   -271.53937040	  -1118.72825773	      0.00000000	      0.00000000	     -0.00000000	  -1987.59274717	      0.00000000	     -0.00000000	      0.00000000	      0.00000000	      0.00000000	      0.00000000	      0.00000000	      0.00000000	      0.00000000	    -34.82665875	     16.04206771	     75.37164307	    606.65345362	   -564.02722072	      0.00000000	      0.00000000	      0.00000000	     40.57902456
      3.84000000	      0.00000000	     -0.00000000	      0.00000000	      0.00000000	      0.00000000	      0.00000000	      0.00000000	      0.00000000	      0.00000000	    -25.13006783	      2.99584627	   -869.93621826	   -270.00132982	  -1119.00948289	      0.00000000	      0.00000000	     -0.00000000	  -2451.53930269	      0.00000000	     -0.00000000	      0.00000000	      0.00000000	      0.00000000	      0.00000000	      0.00000000	      0.00000000	      0.00000000	    -34.97826241	     16.53511544	     75.29486847	    605.43780524	   -564.28664983	      0.00000000	      0.00000000	     -0.00000000	   -219.95369679
      3.85000000	      0.00000000	     -0.00000000	      0.00000000	      0.00000000	      0.00000000	      0.00000000	      0.00000000	      0.00000000	      0.00000000	    -25.90588760	      3.65434647	   -868.57708740	   -269.07986196	  -1119.06162366	      0.00000000	      0.00000000	     -0.00000000	  -2429.52163404	      0.00000000	     -0.00000000	      0.00000000	      0.00000000	      0.00000000	      0.00000000	      0.00000000	      0.00000000	      0.00000000	    -34.82639554	     16.02820129	     75.75260162	    603.94929363	   -563.85467862	      0.00000000	      0.00000000	     -0.00000000	    -93.09046058
      3.86000000	      0.00000000	     -0.00000000	      0.00000000	      0.00000000	      0.00000000	      0.00000000	      0.00000000	      0.00000000	      0.00000000	    -24.87619209	      3.12512732	   -862.81860352	   -268.73657121	  -1119.21592794	      0.00000000	      0.00000000	     -0.00000000	  -2660.36730578	      0.00000000	     -0.00000000	      0.00000000	      0.00000000	      0.00000000	      0.00000000	      0.00000000	      0.00000000	      0.00000000	    -34.92922070	     16.13166733	     76.31517792	    602.83868881	   -562.96912434	      0.00000000	      0.00000000	      0.00000000	   -122.54277397
